<svg width="24" height="24" viewBox="0 0 24 24" fill="none" xmlns="http://www.w3.org/2000/svg">
<path fill-rule="evenodd" clip-rule="evenodd" d="M16.6667 13.1111H7.33333V19.7778H16.6667V13.1111ZM5 10.8888V22H19V10.8888H17.25H14.9167H5Z" fill="black"/>
<path fill-rule="evenodd" clip-rule="evenodd" d="M9.94096 5.04439C9.39924 5.51342 9.08326 6.17919 9.08326 7.00002V10.8889H6.74993V7.00002C6.74993 5.59862 7.30895 4.31994 8.37139 3.40007C9.42714 2.486 10.3087 2 12 2C13.6913 2 14.5728 2.486 15.6285 3.40007C16.691 4.31994 17.25 5.59862 17.25 7.00002H14.9167C14.9167 6.17919 14.6007 5.51342 14.059 5.04439C13.5105 4.56956 13.2254 4.22223 12 4.22223C10.7746 4.22223 10.4894 4.56956 9.94096 5.04439Z" fill="black"/>
<path d="M10.8333 14.2222H13.1667V18.6667H10.8333V14.2222Z" fill="black"/>
<path d="M17.25 7.00002H14.9167V10.8888H17.25V7.00002Z" fill="black"/>
</svg>
