<svg width="24" height="24" viewBox="0 0 24 24" fill="none" xmlns="http://www.w3.org/2000/svg">
<path d="M8.971 16.2641V11.9184L7.70479 12.3149V11.4053L9.97787 10.7523V16.2641H8.971Z" fill="black"/>
<path d="M13.8093 16.3807C13.3822 16.3807 13.0084 16.2667 12.6881 16.0386C12.3677 15.8054 12.1185 15.4789 11.9405 15.0591C11.7676 14.6341 11.6812 14.134 11.6812 13.5587C11.6812 12.9886 11.7676 12.4911 11.9405 12.0661C12.1185 11.6411 12.3677 11.3146 12.6881 11.0866C13.0084 10.8534 13.3822 10.7367 13.8093 10.7367C14.2365 10.7367 14.6103 10.8534 14.9306 11.0866C15.251 11.3146 15.4976 11.6411 15.6705 12.0661C15.8485 12.4911 15.9375 12.9886 15.9375 13.5587C15.9375 14.134 15.8485 14.6341 15.6705 15.0591C15.4976 15.4789 15.251 15.8054 14.9306 16.0386C14.6103 16.2667 14.2365 16.3807 13.8093 16.3807ZM13.8093 15.4634C14.145 15.4634 14.4119 15.2949 14.6103 14.958C14.8137 14.6212 14.9154 14.1547 14.9154 13.5587C14.9154 12.9627 14.8137 12.4963 14.6103 12.1594C14.4119 11.8225 14.145 11.6541 13.8093 11.6541C13.4737 11.6541 13.2042 11.8225 13.0008 12.1594C12.8025 12.4963 12.7033 12.9627 12.7033 13.5587C12.7033 14.1547 12.8025 14.6212 13.0008 14.958C13.2042 15.2949 13.4737 15.4634 13.8093 15.4634Z" fill="black"/>
<path fill-rule="evenodd" clip-rule="evenodd" d="M9.58505 2.29803L11.2942 4.25027C10.5842 4.3682 9.82946 4.55479 9.10149 4.80149C7.96411 5.18693 6.8381 5.73722 6.04715 6.44818C4.53368 7.8086 3.51273 9.64794 3.14826 11.6708C2.78379 13.6937 3.09696 15.7827 4.03747 17.6024C4.97798 19.4221 6.49126 20.8668 8.33427 21.7046C10.1773 22.5423 12.2431 22.7245 14.1999 22.2218C16.1567 21.7192 17.891 20.5608 19.1242 18.9328C20.3574 17.3049 21.018 15.3017 20.9999 13.2451C20.997 12.9141 20.7313 12.6482 20.4066 12.6512C20.0818 12.6542 19.8209 12.9249 19.8238 13.2559C19.8396 15.0437 19.2653 16.7851 18.1932 18.2003C17.1212 19.6156 15.6135 20.6225 13.9124 21.0595C12.2113 21.4965 10.4155 21.3381 8.81333 20.6099C7.21116 19.8816 5.89564 18.6256 5.07803 17.0438C4.26043 15.4619 3.98818 13.6458 4.30502 11.8873C4.62186 10.1288 5.50939 8.52979 6.82509 7.34715C7.44873 6.78658 8.40777 6.29975 9.47258 5.93891C9.98753 5.7644 10.5146 5.62361 11.0219 5.51921L9.58566 7.19888L10.4723 7.98638L12.9327 5.10897C13.1274 4.88128 13.1254 4.54154 12.9282 4.3162L10.4626 1.5L9.58505 2.29803ZM13.0114 2.25482L14.9407 4.69948L13.0084 6.95495L13.8944 7.7433L16.1508 5.10945C16.3383 4.89055 16.3447 4.56609 16.166 4.33965L13.9278 1.50357L13.0114 2.25482Z" fill="black"/>
</svg>
