<svg width="24" height="24" viewBox="0 0 24 24" fill="none" xmlns="http://www.w3.org/2000/svg">
<path d="M3.35448 19.4392C2.47083 17.8851 2.00364 16.1203 2.00002 14.3227C1.9964 12.5251 2.45648 10.7584 3.33387 9.20055C4.21126 7.64275 5.47493 6.34899 6.99745 5.44975C8.51997 4.5505 10.2475 4.07756 12.0059 4.07862C13.7642 4.07967 15.4912 4.55469 17.0127 5.45576C18.5342 6.35683 19.7964 7.6521 20.672 9.21096C21.5476 10.7698 22.0056 12.5371 21.9999 14.3347C21.9943 16.1323 21.525 17.8965 20.6396 19.4495L18.6341 18.2546C19.314 17.062 19.6743 15.7073 19.6787 14.327C19.683 12.9467 19.3313 11.5897 18.659 10.3927C17.9866 9.19566 17.0174 8.20106 15.8491 7.50915C14.6808 6.81724 13.3547 6.45249 12.0045 6.45168C10.6543 6.45087 9.32779 6.81403 8.15869 7.50453C6.98959 8.19504 6.01925 9.18847 5.34553 10.3847C4.67181 11.5809 4.31853 12.9375 4.32131 14.3178C4.32409 15.6981 4.68283 17.0533 5.36136 18.2466L3.35448 19.4392Z" fill="black"/>
<path fill-rule="evenodd" clip-rule="evenodd" d="M11.7252 13.1487C11.7537 13.1487 11.7821 13.1493 11.8104 13.1504L11.812 13.1504" fill="black"/>
<path d="M13.9474 15.4205C13.9474 16.6752 12.9525 17.6923 11.7252 17.6923C10.4979 17.6923 9.50297 16.6752 9.50297 15.4205C9.50297 14.1658 10.4979 13.1487 11.7252 13.1487C11.7537 13.1487 11.7821 13.1493 11.8104 13.1504L11.812 13.1504C11.8753 13.1529 11.938 13.1581 11.9999 13.1659L13.6666 10.3262L15.3332 11.4621L13.6666 14.3018L13.6556 14.2944C13.8413 14.6263 13.9474 15.0107 13.9474 15.4205Z" fill="black"/>
</svg>
