<svg width="24" height="24" viewBox="0 0 24 24" fill="none" xmlns="http://www.w3.org/2000/svg">
<path d="M9.3292 16.2641V11.9184L8.06299 12.3149V11.4053L10.3361 10.7523V16.2641H9.3292Z" fill="black"/>
<path d="M14.1675 16.3807C13.7404 16.3807 13.3666 16.2667 13.0463 16.0386C12.7259 15.8054 12.4767 15.4789 12.2987 15.0591C12.1258 14.6341 12.0394 14.134 12.0394 13.5587C12.0394 12.9886 12.1258 12.4911 12.2987 12.0661C12.4767 11.6411 12.7259 11.3146 13.0463 11.0866C13.3666 10.8534 13.7404 10.7367 14.1675 10.7367C14.5947 10.7367 14.9685 10.8534 15.2888 11.0866C15.6092 11.3146 15.8558 11.6411 16.0287 12.0661C16.2067 12.4911 16.2957 12.9886 16.2957 13.5587C16.2957 14.134 16.2067 14.6341 16.0287 15.0591C15.8558 15.4789 15.6092 15.8054 15.2888 16.0386C14.9685 16.2667 14.5947 16.3807 14.1675 16.3807ZM14.1675 15.4634C14.5032 15.4634 14.7701 15.2949 14.9685 14.958C15.1719 14.6212 15.2736 14.1547 15.2736 13.5587C15.2736 12.9627 15.1719 12.4963 14.9685 12.1594C14.7701 11.8225 14.5032 11.6541 14.1675 11.6541C13.8319 11.6541 13.5624 11.8225 13.359 12.1594C13.1607 12.4963 13.0615 12.9627 13.0615 13.5587C13.0615 14.1547 13.1607 14.6212 13.359 14.958C13.5624 15.2949 13.8319 15.4634 14.1675 15.4634Z" fill="black"/>
<path fill-rule="evenodd" clip-rule="evenodd" d="M14.4154 2.29803L12.7063 4.25027C13.4163 4.3682 14.171 4.55479 14.899 4.80149C16.0364 5.18693 17.1624 5.73722 17.9533 6.44818C19.4668 7.8086 20.4878 9.64794 20.8522 11.6708C21.2167 13.6937 20.9035 15.7827 19.963 17.6024C19.0225 19.4221 17.5092 20.8668 15.6662 21.7046C13.8232 22.5423 11.7574 22.7245 9.80061 22.2218C7.8438 21.7192 6.10952 20.5608 4.87631 18.9328C3.64309 17.3049 2.98249 15.3017 3.00061 13.2451C3.00352 12.9141 3.26916 12.6482 3.59391 12.6512C3.91867 12.6542 4.17958 12.9249 4.17666 13.2559C4.16091 15.0437 4.73518 16.7851 5.80725 18.2003C6.87931 19.6156 8.38695 20.6225 10.0881 21.0595C11.7892 21.4965 13.585 21.3381 15.1872 20.6099C16.7893 19.8816 18.1048 18.6256 18.9225 17.0438C19.7401 15.4619 20.0123 13.6458 19.6955 11.8873C19.3786 10.1288 18.4911 8.52979 17.1754 7.34715C16.5518 6.78658 15.5927 6.29975 14.5279 5.93891C14.013 5.7644 13.4859 5.62361 12.9786 5.51921L14.4148 7.19888L13.5282 7.98638L11.0678 5.10897C10.8731 4.88128 10.875 4.54154 11.0723 4.3162L13.5379 1.5L14.4154 2.29803ZM10.9891 2.25482L9.05982 4.69948L10.9921 6.95495L10.1061 7.7433L7.84973 5.10945C7.6622 4.89055 7.65577 4.56609 7.83447 4.33965L10.0727 1.50357L10.9891 2.25482Z" fill="black"/>
</svg>
